HIERARCHY
ROOT hip
{
  OFFSET 49.9058 82.4232 -108.241
  CHANNELS 6 Xposition Yposition Zposition Zrotation Xrotation Yrotation
  JOINT abdomen
  {
    OFFSET 0 20.6881 -0.73152
    CHANNELS 3 Zrotation Xrotation Yrotation
    JOINT chest
    {
      OFFSET 0 11.7043 -0.48768
      CHANNELS 3 Zrotation Xrotation Yrotation
      JOINT neck
      {
        OFFSET 0 22.1894 -2.19456
        CHANNELS 3 Zrotation Xrotation Yrotation
        JOINT head
        {
          OFFSET -0.24384 7.07133 1.2192
          CHANNELS 3 Zrotation Xrotation Yrotation
          JOINT leftEye
          {
            OFFSET 4.14528 8.04674 8.04672
            CHANNELS 3 Zrotation Xrotation Yrotation
            End Site
            {
              OFFSET 1 0 0
            }
          }
          JOINT rightEye
          {
            OFFSET -3.6576 8.04674 8.04672
            CHANNELS 3 Zrotation Xrotation Yrotation
            End Site
            {
              OFFSET 1 0 0
            }
          }
        }
      }
      JOINT rCollar
      {
        OFFSET -2.68224 19.2634 -4.8768
        CHANNELS 3 Zrotation Xrotation Yrotation
        JOINT rShldr
        {
          OFFSET -8.77824 -1.95073 1.46304
          CHANNELS 3 Zrotation Xrotation Yrotation
          JOINT rForeArm
          {
            OFFSET -28.1742 -1.7115 0.48768
            CHANNELS 3 Zrotation Xrotation Yrotation
            JOINT rHand
            {
              OFFSET -22.5879 0.773209 7.07136
              CHANNELS 3 Zrotation Xrotation Yrotation
              JOINT rThumb1
              {
                OFFSET -1.2192 -0.487915 3.41376
                CHANNELS 3 Zrotation Xrotation Yrotation
                JOINT rThumb2
                {
                  OFFSET -3.37035 -0.52449 3.41376
                  CHANNELS 3 Zrotation Xrotation Yrotation
                  End Site
                  {
                    OFFSET -1.78271 -1.18214 1.43049
                  }
                }
              }
              JOINT rIndex1
              {
                OFFSET -7.75947 0.938293 5.60832
                CHANNELS 3 Zrotation Xrotation Yrotation
                JOINT rIndex2
                {
                  OFFSET -2.54057 -0.884171 1.56538
                  CHANNELS 3 Zrotation Xrotation Yrotation
                  End Site
                  {
                    OFFSET -1.62519 -0.234802 1.16502
                  }
                }
              }
              JOINT rMid1
              {
                OFFSET -8.24714 1.18213 3.41376
                CHANNELS 3 Zrotation Xrotation Yrotation
                JOINT rMid2
                {
                  OFFSET -3.10165 -0.590103 1.0647
                  CHANNELS 3 Zrotation Xrotation Yrotation
                  End Site
                  {
                    OFFSET -2.48547 -0.328903 0.83742
                  }
                }
              }
              JOINT rRing1
              {
                OFFSET -8.82822 0.546677 1.51678
                CHANNELS 3 Zrotation Xrotation Yrotation
                JOINT rRing2
                {
                  OFFSET -2.60934 -0.819778 -0.0198488
                  CHANNELS 3 Zrotation Xrotation Yrotation
                  End Site
                  {
                    OFFSET -2.33842 -0.294052 0.168128
                  }
                }
              }
              JOINT rPinky1
              {
                OFFSET -8.27202 -0.0477905 -0.4584
                CHANNELS 3 Zrotation Xrotation Yrotation
                JOINT rPinky2
                {
                  OFFSET -1.82734 -0.647385 -0.700984
                  CHANNELS 3 Zrotation Xrotation Yrotation
                  End Site
                  {
                    OFFSET -1.69225 -0.51767 -0.607171
                  }
                }
              }
            }
          }
        }
      }
      JOINT lCollar
      {
        OFFSET 2.68224 19.2634 -4.8768
        CHANNELS 3 Zrotation Xrotation Yrotation
        JOINT lShldr
        {
          OFFSET 8.77824 -1.95073 1.46304
          CHANNELS 3 Zrotation Xrotation Yrotation
          JOINT lForeArm
          {
            OFFSET 28.1742 -1.7115 0.48768
            CHANNELS 3 Zrotation Xrotation Yrotation
            JOINT lHand
            {
              OFFSET 22.5879 0.773209 7.07136
              CHANNELS 3 Zrotation Xrotation Yrotation
              JOINT lThumb1
              {
                OFFSET 1.2192 -0.487915 3.41376
                CHANNELS 3 Zrotation Xrotation Yrotation
                JOINT lThumb2
                {
                  OFFSET 3.37035 -0.52449 3.41376
                  CHANNELS 3 Zrotation Xrotation Yrotation
                  End Site
                  {
                    OFFSET 1.78271 -1.18214 1.43049
                  }
                }
              }
              JOINT lIndex1
              {
                OFFSET 7.75947 0.938293 5.60832
                CHANNELS 3 Zrotation Xrotation Yrotation
                JOINT lIndex2
                {
                  OFFSET 2.54057 -0.884171 1.56538
                  CHANNELS 3 Zrotation Xrotation Yrotation
                  End Site
                  {
                    OFFSET 1.62519 -0.234802 1.16502
                  }
                }
              }
              JOINT lMid1
              {
                OFFSET 8.24714 1.18213 3.41376
                CHANNELS 3 Zrotation Xrotation Yrotation
                JOINT lMid2
                {
                  OFFSET 3.10165 -0.590103 1.0647
                  CHANNELS 3 Zrotation Xrotation Yrotation
                  End Site
                  {
                    OFFSET 2.48547 -0.328903 0.83742
                  }
                }
              }
              JOINT lRing1
              {
                OFFSET 8.82822 0.546677 1.51678
                CHANNELS 3 Zrotation Xrotation Yrotation
                JOINT lRing2
                {
                  OFFSET 2.60934 -0.819778 -0.0198488
                  CHANNELS 3 Zrotation Xrotation Yrotation
                  End Site
                  {
                    OFFSET 2.33842 -0.294052 0.168128
                  }
                }
              }
              JOINT lPinky1
              {
                OFFSET 8.27202 -0.0477905 -0.4584
                CHANNELS 3 Zrotation Xrotation Yrotation
                JOINT lPinky2
                {
                  OFFSET 1.82734 -0.647385 -0.700984
                  CHANNELS 3 Zrotation Xrotation Yrotation
                  End Site
                  {
                    OFFSET 1.69225 -0.51767 -0.607171
                  }
                }
              }
            }
          }
        }
      }
    }
  }
  JOINT rButtock
  {
    OFFSET -8.77824 4.35084 1.2192
    CHANNELS 3 Zrotation Xrotation Yrotation
    JOINT rThigh
    {
      OFFSET 0 -1.70687 -2.19456
      CHANNELS 3 Zrotation Xrotation Yrotation
      JOINT rShin
      {
        OFFSET 0 -36.8199 0.73152
        CHANNELS 3 Zrotation Xrotation Yrotation
        JOINT rFoot
        {
          OFFSET 0.73152 -45.1104 -5.12064
          CHANNELS 3 Zrotation Xrotation Yrotation
          End Site
          {
            OFFSET -1.1221 -3.69964 12.103
          }
        }
      }
    }
  }
  JOINT lButtock
  {
    OFFSET 8.77824 4.35084 1.2192
    CHANNELS 3 Zrotation Xrotation Yrotation
    JOINT lThigh
    {
      OFFSET 0 -1.70687 -2.19456
      CHANNELS 3 Zrotation Xrotation Yrotation
      JOINT lShin
      {
        OFFSET 0 -36.8199 0.73152
        CHANNELS 3 Zrotation Xrotation Yrotation
        JOINT lFoot
        {
          OFFSET -0.73152 -45.1104 -5.12064
          CHANNELS 3 Zrotation Xrotation Yrotation
          End Site
          {
            OFFSET 1.1221 -3.69964 12.103
          }
        }
      }
    }
  }
}
MOTION
Frames:	9
Frame Time:	0.00833333
48.8268 80.7539 -110.045 6.37963 -2.74647 -84.0292 1.63057 -1.28339 1.96887 3.05503 -0.423242 0.467216 -3.22806 -9.28027 6.60543 4.77308 4.82474 14.2373 -0 0 0 -0 0 0 1.01785e-013 1.93337e-012 -1.79552e-013 79.1663 12.378 -8.93698 -12.4035 -5.7357 22.3937 -0.0108602 -2.97405 -0.418354 -3.48384e-010 2.56329e-009 5.04192e-009 -6.00806e-010 4.43413e-009 8.71403e-009 -3.48373e-010 2.56328e-009 5.04192e-009 7.73091 5.47488 0.417314 -3.48382e-010 2.56328e-009 5.04193e-009 2.90554 0.965183 0.102902 -3.48372e-010 2.56328e-009 5.04192e-009 10.2786 0.731801 0.0259123 -3.48386e-010 2.56328e-009 5.04192e-009 2.22167 -0.733487 -0.20892 1.01727e-013 1.93339e-012 -1.79801e-013 -80.2417 26.5455 -0.137755 11.9494 -5.41323 -21.5119 0.215027 13.0945 -1.87337 4.03619e-009 -3.78581e-009 -4.80871e-009 6.92379e-009 -6.54637e-009 -8.35404e-009 4.03618e-009 -3.78581e-009 -4.8087e-009 -7.73091 5.47488 -0.417314 4.03618e-009 -3.78581e-009 -4.80871e-009 -2.90554 0.965183 -0.102902 4.03618e-009 -3.78581e-009 -4.80871e-009 -10.2786 0.731801 -0.0259123 4.03619e-009 -3.78581e-009 -4.80872e-009 -2.22167 -0.733487 0.20892 -2.03217e-016 0 -3.88251e-019 0.3675 -20.0679 -2.20615 -0.387004 43.5974 0.990168 -6.26791 -27.2135 -10.4018 2.03217e-016 0 3.88251e-019 -1.39209 -20.7363 4.12828 0.278228 37.8582 -0.577029 -1.80497 -19.1929 -5.6899 
49.0463 80.5524 -110.049 6.54885 -2.76314 -83.9645 1.52645 -0.923791 1.92376 3.17012 -0.725498 0.467603 -3.1622 -9.57525 6.65314 4.35047 4.54416 14.3585 -0 0 0 -0 0 0 8.79394e-014 1.50061e-012 -1.29157e-013 78.44 9.72416 -8.39648 -12.1526 -5.55697 21.9045 0.00121571 -1.66522 -0.234086 -4.41765e-010 1.5958e-009 3.5822e-009 -7.63244e-010 2.75874e-009 6.19322e-009 -4.41755e-010 1.5958e-009 3.5822e-009 7.73091 5.47488 0.417314 -4.41765e-010 1.5958e-009 3.58221e-009 2.90554 0.965183 0.102902 -4.41755e-010 1.5958e-009 3.58219e-009 10.2786 0.731801 0.0259123 -4.41767e-010 1.5958e-009 3.5822e-009 2.22167 -0.733487 -0.20892 8.78719e-014 1.50063e-012 -1.29392e-013 -79.776 25.688 -0.303069 11.9432 -5.40894 -21.5001 0.223021 13.3144 -1.90611 2.98678e-009 -2.51397e-009 -3.23906e-009 5.12787e-009 -4.34777e-009 -5.62937e-009 2.98678e-009 -2.51396e-009 -3.23905e-009 -7.73091 5.47488 -0.417314 2.98678e-009 -2.51396e-009 -3.23905e-009 -2.90554 0.965183 -0.102902 2.98677e-009 -2.51396e-009 -3.23905e-009 -10.2786 0.731801 -0.0259123 2.98678e-009 -2.51396e-009 -3.23906e-009 -2.22167 -0.733487 0.20892 -2.03217e-016 0 -3.88251e-019 0.284915 -20.8328 -2.38027 -0.40441 44.3773 1.01577 -6.38101 -27.3765 -10.5414 2.03217e-016 0 3.88251e-019 -1.38378 -21.448 4.2195 0.29208 38.5658 -0.5955 -1.81846 -19.4726 -5.64598 
49.2622 80.321 -110.077 6.69694 -2.7986 -83.8941 1.40457 -0.493452 1.8403 3.28742 -1.09883 0.460016 -3.01587 -9.79729 6.74828 3.72863 4.19794 14.5428 -0 0 0 -0 0 0 7.29456e-014 6.15221e-013 -1.32968e-014 77.7375 6.52523 -7.87074 -11.8915 -5.37454 21.3974 0.0071881 -0.069731 -0.00983179 -8.81067e-010 -3.27786e-010 1.42568e-009 -1.52599e-009 -5.72751e-010 2.46911e-009 -8.81061e-010 -3.27787e-010 1.42568e-009 7.73091 5.47488 0.417314 -8.8107e-010 -3.2779e-010 1.4257e-009 2.90554 0.965183 0.102902 -8.8106e-010 -3.27787e-010 1.42568e-009 10.2786 0.731801 0.0259123 -8.81071e-010 -3.27786e-010 1.42569e-009 2.22167 -0.733487 -0.20892 7.28677e-014 6.1523e-013 -1.35112e-014 -79.3723 24.612 -0.416173 11.9268 -5.39744 -21.4683 0.225071 13.3753 -1.91516 1.01429e-009 -4.0252e-010 -9.52436e-010 1.74554e-009 -6.95756e-010 -1.6555e-009 1.01429e-009 -4.02514e-010 -9.52431e-010 -7.73091 5.47488 -0.417314 1.0143e-009 -4.02514e-010 -9.52428e-010 -2.90554 0.965183 -0.102902 1.01429e-009 -4.02518e-010 -9.5243e-010 -10.2786 0.731801 -0.0259123 1.0143e-009 -4.02516e-010 -9.52439e-010 -2.22167 -0.733487 0.20892 -2.03217e-016 0 -3.88251e-019 0.187756 -21.6874 -2.56932 -0.426535 45.3216 1.04938 -6.58204 -27.5206 -10.8322 2.03217e-016 0 3.88251e-019 -1.42646 -22.2339 4.27213 0.310103 39.4475 -0.619946 -1.77476 -19.7646 -5.46113 
49.5488 80.0196 -110.127 6.83538 -2.81214 -83.804 1.31824 -0.0404042 1.72837 3.38071 -1.47529 0.444424 -2.851 -10.0023 6.85842 3.12356 3.8282 14.7474 -0 0 0 -0 0 0 5.96677e-014 -3.07586e-013 1.09671e-013 77.1089 3.18745 -7.345 -11.6485 -5.20666 20.9291 0.00228323 1.47163 0.206815 -1.35223e-009 -2.28229e-009 -6.34335e-010 -2.34388e-009 -3.95766e-009 -1.08858e-009 -1.35222e-009 -2.28229e-009 -6.34342e-010 7.73091 5.47488 0.417314 -1.35223e-009 -2.28229e-009 -6.34319e-010 2.90554 0.965183 0.102902 -1.35222e-009 -2.28229e-009 -6.34334e-010 10.2786 0.731801 0.0259123 -1.35223e-009 -2.28229e-009 -6.34325e-010 2.22167 -0.733487 -0.20892 5.95767e-014 -3.07582e-013 1.09473e-013 -78.9857 23.3595 -0.528833 11.9021 -5.38018 -21.4205 0.224066 13.3552 -1.91209 -1.01584e-009 1.64876e-009 1.19852e-009 -1.73786e-009 2.85303e-009 2.08446e-009 -1.01584e-009 1.64876e-009 1.19852e-009 -7.73091 5.47488 -0.417314 -1.01584e-009 1.64876e-009 1.19853e-009 -2.90554 0.965183 -0.102902 -1.01584e-009 1.64876e-009 1.19853e-009 -10.2786 0.731801 -0.0259123 -1.01583e-009 1.64876e-009 1.19852e-009 -2.22167 -0.733487 0.20892 -2.03217e-016 0 -3.88251e-019 0.111026 -22.6039 -2.777 -0.452723 46.3637 1.08763 -6.79499 -27.6587 -11.1403 2.03217e-016 0 3.88251e-019 -1.46159 -23.096 4.29453 0.33164 40.4587 -0.648919 -1.69994 -20.0552 -5.20683 
49.861 79.6864 -110.135 6.9754 -2.76059 -83.68 1.32023 0.387298 1.59779 3.42382 -1.78691 0.420785 -2.72973 -10.2462 6.95119 2.74974 3.47668 14.9298 -0 0 0 -0 0 0 5.09692e-014 -8.52588e-013 1.81391e-013 76.5938 0.118317 -6.79012 -11.4529 -5.07228 20.556 -0.0084137 2.61805 0.368202 -1.54118e-009 -3.34252e-009 -1.80457e-009 -2.67173e-009 -5.79329e-009 -3.11015e-009 -1.54117e-009 -3.34252e-009 -1.80458e-009 7.73091 5.47488 0.417314 -1.54118e-009 -3.34253e-009 -1.80455e-009 2.90554 0.965183 0.102902 -1.54117e-009 -3.34252e-009 -1.80457e-009 10.2786 0.731801 0.0259123 -1.54118e-009 -3.34252e-009 -1.80455e-009 2.22167 -0.733487 -0.20892 5.08616e-014 -8.52588e-013 1.81192e-013 -78.5756 21.9726 -0.691207 11.871 -5.35858 -21.3603 0.223069 13.3316 -1.90855 -2.23819e-009 2.74009e-009 2.36118e-009 -3.83701e-009 4.74194e-009 4.10739e-009 -2.23818e-009 2.7401e-009 2.36118e-009 -7.73091 5.47488 -0.417314 -2.23818e-009 2.7401e-009 2.36119e-009 -2.90554 0.965183 -0.102902 -2.23819e-009 2.74009e-009 2.36119e-009 -10.2786 0.731801 -0.0259123 -2.23818e-009 2.74009e-009 2.36118e-009 -2.22167 -0.733487 0.20892 -2.03217e-016 0 -3.88251e-019 0.0897713 -23.5543 -3.00701 -0.481799 47.4369 1.12668 -6.94243 -27.8053 -11.3311 2.03217e-016 0 3.88251e-019 -1.43036 -24.0359 4.29519 0.355881 41.5547 -0.680864 -1.62177 -20.3306 -4.95513 
50.1261 79.3892 -110.163 7.14561 -2.59502 -83.514 1.46993 0.759212 1.44379 3.37345 -2.00458 0.386095 -2.68531 -10.5755 7.01706 2.75096 3.1503 15.0849 -0 0 0 -0 0 0 5.16716e-014 -8.11351e-013 1.76155e-013 76.2278 -2.75592 -6.14144 -11.297 -4.96621 20.26 -0.0181602 3.39165 0.477299 -1.28308e-009 -3.01889e-009 -1.60446e-009 -2.22317e-009 -5.23127e-009 -2.76613e-009 -1.28308e-009 -3.01889e-009 -1.60447e-009 7.73091 5.47488 0.417314 -1.28309e-009 -3.0189e-009 -1.60444e-009 2.90554 0.965183 0.102902 -1.28308e-009 -3.01889e-009 -1.60445e-009 10.2786 0.731801 0.0259123 -1.28309e-009 -3.01889e-009 -1.60444e-009 2.22167 -0.733487 -0.20892 5.15352e-014 -8.11354e-013 1.75927e-013 -78.1137 20.3493 -0.939811 11.825 -5.32679 -21.2714 0.222784 13.3225 -1.9072 -2.26908e-009 2.30555e-009 1.95973e-009 -3.89566e-009 3.993e-009 3.41389e-009 -2.26908e-009 2.30556e-009 1.95973e-009 -7.73091 5.47488 -0.417314 -2.26908e-009 2.30556e-009 1.95973e-009 -2.90554 0.965183 -0.102902 -2.26909e-009 2.30555e-009 1.95973e-009 -10.2786 0.731801 -0.0259123 -2.26908e-009 2.30556e-009 1.95973e-009 -2.22167 -0.733487 0.20892 -2.03217e-016 0 -3.88251e-019 0.149048 -24.6135 -3.28203 -0.51547 48.5797 1.16646 -6.96271 -27.9604 -11.3017 2.03217e-016 0 3.88251e-019 -1.28318 -25.1314 4.29696 0.384247 42.7761 -0.717047 -1.54864 -20.566 -4.72906 
50.389 79.0807 -110.261 7.33016 -2.34224 -83.3224 1.72473 1.10685 1.26355 3.25556 -2.1682 0.341362 -2.67903 -10.95 7.07374 2.98371 2.82816 15.2334 -0 0 0 -0 0 0 5.88951e-014 -4.37895e-013 1.28468e-013 75.9943 -5.59173 -5.42245 -11.1719 -4.88259 20.0217 -0.0252339 3.93653 0.554264 -7.72469e-010 -1.8858e-009 -5.46758e-010 -1.33595e-009 -3.2667e-009 -9.41779e-010 -7.72464e-010 -1.88579e-009 -5.4677e-010 7.73091 5.47488 0.417314 -7.72473e-010 -1.8858e-009 -5.46744e-010 2.90554 0.965183 0.102902 -7.72466e-010 -1.8858e-009 -5.46755e-010 10.2786 0.731801 0.0259123 -7.72474e-010 -1.8858e-009 -5.46744e-010 2.22167 -0.733487 -0.20892 5.8721e-014 -4.37901e-013 1.28191e-013 -77.6389 18.5048 -1.23717 11.766 -5.28607 -21.1576 0.221622 13.2872 -1.90197 -1.62105e-009 9.33681e-010 5.65049e-010 -2.79271e-009 1.62403e-009 9.96261e-010 -1.62105e-009 9.33688e-010 5.65053e-010 -7.73091 5.47488 -0.417314 -1.62104e-009 9.33684e-010 5.65052e-010 -2.90554 0.965183 -0.102902 -1.62106e-009 9.33686e-010 5.65055e-010 -10.2786 0.731801 -0.0259123 -1.62105e-009 9.33686e-010 5.65049e-010 -2.22167 -0.733487 0.20892 -2.03217e-016 0 -3.88251e-019 0.25933 -25.7683 -3.59593 -0.554495 49.809 1.20951 -6.90896 -28.118 -11.1452 2.03217e-016 0 3.88251e-019 -1.06404 -26.356 4.28878 0.417801 44.1294 -0.758749 -1.46549 -20.7754 -4.48887 
50.6566 78.7259 -110.329 7.47399 -2.07405 -83.1234 1.98398 1.47506 1.06976 3.14803 -2.31337 0.292552 -2.66531 -11.2951 7.12962 3.23018 2.50995 15.3708 -0 0 0 -0 0 0 6.39513e-014 -1.06807e-014 7.02933e-014 75.8226 -8.10199 -4.72445 -11.1064 -4.83988 19.8959 -0.0257105 4.09496 0.576632 -2.34326e-010 -6.14013e-010 6.71834e-010 -4.01096e-010 -1.06211e-009 1.16056e-009 -2.34317e-010 -6.14011e-010 6.71821e-010 7.73091 5.47488 0.417314 -2.34328e-010 -6.14018e-010 6.71846e-010 2.90554 0.965183 0.102902 -2.34321e-010 -6.14013e-010 6.71838e-010 10.2786 0.731801 0.0259123 -2.3433e-010 -6.14012e-010 6.71848e-010 2.22167 -0.733487 -0.20892 6.37473e-014 -1.06893e-014 6.99699e-014 -77.206 16.6569 -1.52408 11.7116 -5.24856 -21.0529 0.219213 13.2163 -1.89145 -7.7295e-010 -5.43582e-010 -9.55438e-010 -1.34551e-009 -9.27857e-010 -1.64109e-009 -7.72948e-010 -5.43576e-010 -9.55433e-010 -7.73091 5.47488 -0.417314 -7.72943e-010 -5.43582e-010 -9.55439e-010 -2.90554 0.965183 -0.102902 -7.72956e-010 -5.43575e-010 -9.55434e-010 -10.2786 0.731801 -0.0259123 -7.72949e-010 -5.43576e-010 -9.55439e-010 -2.22167 -0.733487 0.20892 -2.03217e-016 0 -3.88251e-019 0.379071 -26.8596 -3.90658 -0.595416 51.0256 1.25518 -6.87629 -28.2842 -11.0219 2.03217e-016 0 3.88251e-019 -0.857239 -27.5549 4.22629 0.454619 45.518 -0.803994 -1.36538 -21.0045 -4.21266 
50.8986 78.3872 -110.325 7.52321 -1.86835 -82.9242 2.14732 1.90871 0.875165 3.12872 -2.47571 0.245634 -2.5987 -11.5364 7.19286 3.27247 2.19534 15.4927 -0 0 0 -0 0 0 5.81519e-014 1.91831e-013 3.35946e-014 75.612 -9.9975 -4.13943 -11.1293 -4.85649 19.937 -0.0169035 3.7092 0.52203 1.06367e-010 1.25672e-010 1.35463e-009 1.90373e-010 2.19989e-010 2.33854e-009 1.06377e-010 1.25673e-010 1.35462e-009 7.73091 5.47488 0.417314 1.06367e-010 1.25667e-010 1.35464e-009 2.90554 0.965183 0.102902 1.06372e-010 1.25671e-010 1.35463e-009 10.2786 0.731801 0.0259123 1.06364e-010 1.25672e-010 1.35464e-009 2.22167 -0.733487 -0.20892 5.79422e-014 1.91823e-013 3.32467e-014 -76.8576 15.0234 -1.74456 11.6796 -5.22651 -20.9916 0.215217 13.1001 -1.87421 -2.03641e-010 -1.2943e-009 -1.73432e-009 -3.71417e-010 -2.22556e-009 -2.99374e-009 -2.03641e-010 -1.29429e-009 -1.73431e-009 -7.73091 5.47488 -0.417314 -2.03634e-010 -1.2943e-009 -1.73432e-009 -2.90554 0.965183 -0.102902 -2.03648e-010 -1.29429e-009 -1.73431e-009 -10.2786 0.731801 -0.0259123 -2.03642e-010 -1.29429e-009 -1.73432e-009 -2.22167 -0.733487 0.20892 -2.03217e-016 0 -3.88251e-019 0.474125 -27.7287 -4.16779 -0.63417 52.1304 1.3022 -6.96174 -28.4655 -11.0932 2.03217e-016 0 3.88251e-019 -0.750522 -28.5736 4.06256 0.49209 46.8451 -0.850229 -1.24005 -21.2986 -3.8781 
